# xmcd CD database file
# Copyright (C) 1995-1998 Ti Kan
#
# Track frame offsets:
#	150
#	26457
#	46910
#	60607
#	75505
#	91606
#	114931
#	135373
#	162845
#	176333
#	194074
#	209311
#
# Disc length: 2990 seconds
#
# Revision: 1
# Processed by: cddbd v1.4b41PL1 Copyright (c) Steve Scherf et al.
# Submitted via: CDex 1.30
#
DISCID=8c0bac0c
DTITLE=Tommy Schneller - Blues for the Ladies
DYEAR=2000
DGENRE=Blues
TTITLE0=Do it
TTITLE1=Blues for the Ladies
TTITLE2=Tired of your jive
TTITLE3=Hard to satisfy
TTITLE4=Love of mine
TTITLE5=Talking in your sleep
TTITLE6=Barefootin' (in the sand)
TTITLE7=Ten years gone by
TTITLE8=Pouring water on a drowning man
TTITLE9=Pack my bags and walk
TTITLE10=Little girl likes to dance
TTITLE11=What you'll be
EXTD=\nYEAR: 2000  ID3G:   0
EXTT0=
EXTT1=
EXTT2=
EXTT3=
EXTT4=
EXTT5=
EXTT6=
EXTT7=
EXTT8=
EXTT9=
EXTT10=
EXTT11=
PLAYORDER=
